# xmcd
#
# Track frame offsets: 
#        150
#        12253
#        31022
#        53146
#        66812
#        83273
#        100732
#        117072
#        131138
#        145411
#        160431
#        176439
#        196823
#        213023
#        229893
#        247428
#        264901
#        275846
#        293373
#
# Disc length: 4165 seconds
#
# Revision: 0
# Processed by: cddbd v1.5.2PL0 Copyright (c) Steve Scherf et al.
# Submitted via: ExactAudioCopyFreeDBPlugin 1.0
#
DISCID=06104313
DTITLE=Faith Evans - Something About Faith (Deluxe Edition)
DYEAR=2010
DGENRE=R&B
TTITLE0=Something About Faith (Intro)
TTITLE1=I Still
TTITLE2=Way You Move (feat. Snoop Dogg)
TTITLE3=Real Things
TTITLE4=Worth It
TTITLE5=Gone Already
TTITLE6=Party (feat. Redman)
TTITLE7=Right Here
TTITLE8=Your Lover
TTITLE9=Can't Stay Away (feat. Keyshia Cole)
TTITLE10=Sunshine
TTITLE11=Everyday Struggle (feat. Raekwon)
TTITLE12=The Love in Me
TTITLE13=Change
TTITLE14=Troubled World (feat. Kelly Price and Jessica Reedy)
TTITLE15=Baby Lay
TTITLE16=Your Lover Pt. 2
TTITLE17=Robot (feat. Fonzworth Bentley and Malik Pendleton)
TTITLE18=Gone Already (Remix)
EXTD=
EXTT0=
EXTT1=
EXTT2=
EXTT3=
EXTT4=
EXTT5=
EXTT6=
EXTT7=
EXTT8=
EXTT9=
EXTT10=
EXTT11=
EXTT12=
EXTT13=
EXTT14=
EXTT15=
EXTT16=
EXTT17=
EXTT18=
PLAYORDER=
